<svg width="75" height="75" viewBox="0 0 25 25" fill="none" xmlns="http://www.w3.org/2000/svg">
<path d="M11.6176 15.1765C11.6176 17.2794 10.5221 18.6029 8.77206 18.6029C7.02206 18.6029 5.92647 17.2721 5.92647 15.1765C5.92647 13.0662 7.02206 11.7426 8.77206 11.7426C10.5221 11.7426 11.6176 13.0662 11.6176 15.1765ZM14.0588 7.75735L13.2941 7.80882C12.8603 7.83824 12.6691 7.99265 12.6691 8.27206C12.6691 8.56618 12.9118 8.72794 13.25 8.72794C13.7132 8.72794 14.0588 8.42647 14.0588 8.02206V7.75735ZM25 12.5C25 19.4779 19.4779 25 12.5 25C5.52206 25 0 19.4779 0 12.5C0 5.52206 5.52206 0 12.5 0C19.4779 0 25 5.52206 25 12.5ZM15.3971 7.60294C15.3971 8.61765 15.9559 9.23529 16.8676 9.23529C17.6397 9.23529 18.125 8.80147 18.2059 8.18382H17.6029C17.5221 8.52206 17.2574 8.70588 16.8676 8.70588C16.3529 8.70588 16.0368 8.28676 16.0368 7.60294C16.0368 6.92647 16.3529 6.52206 16.8676 6.52206C17.2794 6.52206 17.5368 6.75735 17.6029 7.05882H18.2059C18.125 6.45588 17.6544 6 16.8676 6C15.9559 5.99265 15.3971 6.61029 15.3971 7.60294ZM6.99265 6.05882V9.17647H7.61029V7.26471C7.61029 6.86029 7.89706 6.53676 8.27206 6.53676C8.63971 6.53676 8.875 6.75735 8.875 7.11029V9.17647H9.47794V7.20588C9.47794 6.83088 9.73529 6.53676 10.1397 6.53676C10.5441 6.53676 10.7426 6.74265 10.7426 7.17647V9.17647H11.3603V7.02206C11.3603 6.375 10.9926 5.99265 10.3603 5.99265C9.92647 5.99265 9.56618 6.21324 9.41176 6.55147H9.36029C9.22059 6.21324 8.92647 5.99265 8.5 5.99265C8.08088 5.99265 7.76471 6.19853 7.63235 6.55147H7.58823V6.05147L6.99265 6.05882ZM12.7132 15.1765C12.7132 12.4632 11.1985 10.7574 8.77206 10.7574C6.34559 10.7574 4.83088 12.4632 4.83088 15.1765C4.83088 17.8897 6.34559 19.5882 8.77206 19.5882C11.1985 19.5882 12.7132 17.8824 12.7132 15.1765ZM13.0956 9.22794C13.5074 9.22794 13.8456 9.05147 14.0368 8.73529H14.0882V9.17647H14.6838V7.04412C14.6838 6.38971 14.2426 6 13.4559 6C12.7426 6 12.2426 6.34559 12.1765 6.86765H12.7721C12.8382 6.63971 13.0809 6.51471 13.4265 6.51471C13.8456 6.51471 14.0662 6.70588 14.0662 7.05147V7.32353L13.2206 7.375C12.4779 7.41912 12.0588 7.74265 12.0588 8.30882C12.0515 8.86765 12.4926 9.22794 13.0956 9.22794ZM19.8382 17.0147C19.8382 15.8015 19.1324 15.0956 17.3529 14.7059L16.4044 14.5C15.2353 14.2426 14.7794 13.7794 14.7794 13.1103C14.7794 12.2426 15.6029 11.7206 16.6691 11.7206C17.7868 11.7206 18.5221 12.2941 18.6176 13.2353H19.6838C19.6324 11.7868 18.4044 10.7647 16.6985 10.7647C14.9265 10.7647 13.6838 11.7574 13.6838 13.1618C13.6838 14.375 14.4265 15.1544 16.1397 15.5294L17.0882 15.7353C18.2721 15.9926 18.75 16.4706 18.75 17.1838C18.75 18.0221 17.9044 18.6324 16.75 18.6324C15.5221 18.6324 14.6691 18.0735 14.5441 17.1544H13.4779C13.5809 18.6324 14.8235 19.5882 16.6912 19.5882C18.5956 19.5882 19.8382 18.5956 19.8382 17.0147Z" fill="#D8D8D8"/>
</svg>